<?xml version="1.0" encoding="UTF-8"?>
<svg version="1.1" viewBox="0 0 820 820" width="205" height="205" xmlns="http://www.w3.org/2000/svg">
<path transform="translate(640,8)" d="m0 0h6l5 5-2 6-9 16-10 19-12 27-10 26-12 36-10 39-8 37-4 24 64-1h19l18 1 10 4 6 4 7 10 2 6v240l-2 6-6 9-7 6-8 3-10 1-101 1-11 8-11 10-11 9-10 9-11 9-13 11-14 12-8 7-14 12-13 11-13 10-3-1v-108h-34l-40 15-24 7-17 4-39 5-24 2-1 6-7 19-12 35-13 42-12 45-9 40-11 55-2 2h-13l-9-2-1-1v-8l7-41 10-44 9-36 10-34 10-32 9-26 15-39 6-15-11 1h-36l-12-2-8-4-7-8-4-7-1-4v-241l5-10 7-7 12-6 25-1h97l2-5 10-16 13-18 10-13 14-17 14-15 7-8 15-15 8-7 13-12 11-9 15-12 14-10 15-10 18-11 24-13 16-8 30-13 30-10 22-6z" fill="#F9AC32"/>
<path transform="translate(640,8)" d="m0 0h6l5 5-2 6-9 16-10 19-12 27-10 26-12 36-10 39-8 37-4 22v8l-5 23-1 13-3 7-13 10-7 4-4 1v2l-16 8-27 14-4 2h-5v2l-10 4-4 2-9 2-9 4-36 10-23 6-6 1-18 1h-13l-2-1 1-5 9-16 12-18 4-7 6-10 7-10 8-12 9-13h2l2-5 10-14 6-9h2l2-5 10-12 8-11 7-8 4-6h2l2-5 6-7h2l2-5 2-3h2v-2h2v-2h2l2-5 4-5h2v-2h2l2-4 11-11 2-7-3-7-5-5h-8l-6 2-2 4-8 7-4 5h-2l-2 4-11 12-5 5-12 14-4 6-3 3-9 11h-2l-2 6-4 5h-2l-2 4-4 6h-2l-2 5-9 12-3 5h-2l-2 5-7 9-1 2h-2l-2 5-7 11-20 30-5 8-7 11-4 5-6 12-6 10-16 28-6 11-12 23-5 8-8 17-22 46-10 23-3 7-3 3-4-2-2-6-2-19v-39l2-17 4-30 5-24 5-20 8-24 5-12 11-27 7-14 8-17 11-20 6-10h2l2-5 10-16 13-18 10-13 14-17 14-15 7-8 15-15 8-7 13-12 11-9 15-12 14-10 15-10 18-11 24-13 16-8 30-13 30-10 22-6z" fill="#F07A2D"/>
<path transform="translate(546,347)" d="m0 0h4l1 3-7 18-5 13-5 11-8 16-7 11-10 16-10 14h-2v2h-2l-2 5-9 11-22 22-8 6h-2v2l-4 2-1 2h-3v2h-2v2l-4 1v2l-3 2h-3l-1 3-6 2v2l-10 6-2 2h-3l-1 3-4 3-13 4-35 13-25 7-20 4-32 4-19 1 1-9 9-21 5-13 7-15 7-16 15-30 9-19 8-16h2l1-4 6-14 5-8 5-9 5-7 2-1h57l25-2 16-3 25-5 17-4 26-8 17-6 9-4z" fill="#F07A2D"/>
</svg>
